<svg width="83" height="31" viewBox="0 0 83 31" fill="none" xmlns="http://www.w3.org/2000/svg">
<path d="M3.77 8.6C3.77 7.6 4.02 6.66 4.52 5.78C5.02 4.9 5.7 4.14 6.56 3.5C7.44 2.84 8.46 2.33 9.62 1.97C10.8 1.59 12.06 1.4 13.4 1.4C14.74 1.4 16 1.59 17.18 1.97C18.36 2.35 19.38 2.87 20.24 3.53C21.1 4.17 21.78 4.93 22.28 5.81C22.78 6.69 23.03 7.62 23.03 8.6C23.03 9.6 22.78 10.54 22.28 11.42C21.78 12.28 21.1 13.03 20.24 13.67C19.38 14.31 18.36 14.82 17.18 15.2C16 15.58 14.74 15.77 13.4 15.77C12.06 15.77 10.8 15.59 9.62 15.23C8.46 14.85 7.44 14.34 6.56 13.7C5.7 13.04 5.02 12.28 4.52 11.42C4.02 10.54 3.77 9.6 3.77 8.6ZM7.88 8.6C7.88 9.3 8.01 9.95 8.27 10.55C8.55 11.13 8.93 11.64 9.41 12.08C9.91 12.52 10.49 12.86 11.15 13.1C11.83 13.34 12.58 13.46 13.4 13.46C14.18 13.46 14.9 13.34 15.56 13.1C16.24 12.84 16.82 12.5 17.3 12.08C17.8 11.64 18.18 11.13 18.44 10.55C18.72 9.95 18.86 9.3 18.86 8.6C18.86 7.9 18.72 7.25 18.44 6.65C18.18 6.05 17.8 5.54 17.3 5.12C16.82 4.68 16.24 4.34 15.56 4.1C14.9 3.84 14.18 3.71 13.4 3.71C12.62 3.71 11.89 3.84 11.21 4.1C10.53 4.34 9.94 4.68 9.44 5.12C8.96 5.54 8.58 6.05 8.3 6.65C8.02 7.25 7.88 7.9 7.88 8.6ZM-0.01 18.41H26.81V20.75H15.47V30.11H11.36V20.75H-0.01V18.41ZM29.2988 6.35V4.04H34.6688V2.36C34.6688 2.12 34.6588 1.86 34.6388 1.58C34.6188 1.3 34.5288 1.07 34.3688 0.89H37.6988C38.4388 0.89 38.8088 1.22 38.8088 1.88V4.04H44.2088V6.35H41.4488C42.1888 6.93 42.7688 7.59 43.1888 8.33C43.6088 9.05 43.8188 9.97 43.8188 11.09C43.8188 12.05 43.6488 12.93 43.3088 13.73C42.9688 14.51 42.4888 15.18 41.8688 15.74C41.2488 16.28 40.4988 16.71 39.6188 17.03C38.7588 17.33 37.7988 17.48 36.7388 17.48C35.6988 17.48 34.7388 17.33 33.8588 17.03C32.9988 16.71 32.2588 16.28 31.6388 15.74C31.0188 15.18 30.5388 14.51 30.1988 13.73C29.8588 12.93 29.6888 12.05 29.6888 11.09C29.6888 9.97 29.8988 9.05 30.3188 8.33C30.7588 7.59 31.3388 6.93 32.0588 6.35H29.2988ZM53.2688 1.88C53.7088 1.88 53.9988 1.96 54.1388 2.12C54.2788 2.26 54.3488 2.5 54.3488 2.84V17.06H50.7488V9.92H49.0688V17.06H45.4688V4.16C45.4688 3.82 45.4588 3.44 45.4388 3.02C45.4188 2.58 45.3188 2.2 45.1388 1.88H47.9288C48.3888 1.88 48.6888 1.96 48.8288 2.12C48.9888 2.26 49.0688 2.5 49.0688 2.84V7.43H50.7488V4.16C50.7488 3.82 50.7388 3.44 50.7188 3.02C50.6988 2.58 50.6088 2.2 50.4488 1.88H53.2688ZM33.5288 11.15C33.5288 12.35 33.8188 13.32 34.3988 14.06C34.9988 14.78 35.7788 15.14 36.7388 15.14C37.7188 15.14 38.4988 14.78 39.0788 14.06C39.6788 13.32 39.9788 12.35 39.9788 11.15C39.9788 9.95 39.6788 8.98 39.0788 8.24C38.4988 7.5 37.7188 7.13 36.7388 7.13C35.7788 7.13 34.9988 7.5 34.3988 8.24C33.8188 8.98 33.5288 9.95 33.5288 11.15ZM36.5888 24.41C36.5888 23.49 36.8088 22.65 37.2488 21.89C37.6888 21.11 38.2988 20.44 39.0788 19.88C39.8588 19.32 40.7888 18.88 41.8688 18.56C42.9688 18.24 44.1688 18.08 45.4688 18.08C46.7688 18.08 47.9588 18.24 49.0388 18.56C50.1388 18.88 51.0788 19.32 51.8588 19.88C52.6388 20.44 53.2488 21.11 53.6888 21.89C54.1288 22.65 54.3488 23.49 54.3488 24.41C54.3488 25.33 54.1288 26.17 53.6888 26.93C53.2488 27.71 52.6388 28.38 51.8588 28.94C51.0788 29.5 50.1388 29.94 49.0388 30.26C47.9588 30.58 46.7688 30.74 45.4688 30.74C44.1688 30.74 42.9688 30.58 41.8688 30.26C40.7888 29.94 39.8588 29.5 39.0788 28.94C38.2988 28.38 37.6888 27.71 37.2488 26.93C36.8088 26.17 36.5888 25.33 36.5888 24.41ZM40.6988 24.41C40.6988 24.97 40.8188 25.49 41.0588 25.97C41.2988 26.45 41.6288 26.87 42.0488 27.23C42.4688 27.59 42.9688 27.87 43.5488 28.07C44.1288 28.29 44.7688 28.4 45.4688 28.4C46.1488 28.4 46.7788 28.29 47.3588 28.07C47.9588 27.87 48.4688 27.59 48.8888 27.23C49.3088 26.87 49.6388 26.45 49.8788 25.97C50.1188 25.49 50.2388 24.97 50.2388 24.41C50.2388 23.87 50.1188 23.36 49.8788 22.88C49.6388 22.38 49.3088 21.95 48.8888 21.59C48.4688 21.23 47.9588 20.95 47.3588 20.75C46.7788 20.53 46.1488 20.42 45.4688 20.42C44.7688 20.42 44.1288 20.53 43.5488 20.75C42.9688 20.95 42.4688 21.23 42.0488 21.59C41.6288 21.95 41.2988 22.38 41.0588 22.88C40.8188 23.36 40.6988 23.87 40.6988 24.41ZM82.2477 29.78H78.1077V4.22C78.1077 4.08 78.1077 3.9 78.1077 3.68C78.1077 3.46 78.0977 3.24 78.0777 3.02C78.0577 2.8 78.0177 2.59 77.9577 2.39C77.9177 2.17 77.8577 2 77.7777 1.88H80.8677C81.7877 1.88 82.2477 2.21 82.2477 2.87V29.78ZM56.8077 19.82C59.3077 17.66 61.1377 15.27 62.2977 12.65C63.4577 10.01 64.0577 7.13 64.0977 4.01C64.0977 3.51 63.9577 3.09 63.6777 2.75L63.4677 2.57H67.3977C67.6377 2.59 67.8077 2.62 67.9077 2.66C68.2677 2.84 68.4477 3.16 68.4477 3.62C68.4477 4.94 68.3177 6.21 68.0577 7.43C67.7977 8.65 67.4177 9.83 66.9177 10.97C67.3177 11.45 67.8077 11.98 68.3877 12.56C68.9877 13.12 69.6477 13.7 70.3677 14.3C71.0877 14.88 71.8577 15.47 72.6777 16.07C73.4977 16.65 74.3277 17.2 75.1677 17.72L72.8277 20.96C72.2077 20.44 71.5677 19.88 70.9077 19.28C70.2677 18.66 69.6277 18.02 68.9877 17.36C68.3677 16.7 67.7777 16.02 67.2177 15.32C66.6777 14.62 66.1977 13.92 65.7777 13.22C64.8177 14.84 63.7077 16.33 62.4477 17.69C61.2077 19.05 59.7777 20.27 58.1577 21.35L56.8077 19.82Z" fill="white"/>
</svg>
